{
  "accessors": [
    {
      "bufferView": 2,
      "componentType": 5126,
      "count": 2400,
      "max": [
        -33.492401123046875,
        -28.175199508666992,
        4.754079818725586
      ],
      "min": [
        -38.494998931884766,
        -33.165199279785156,
        -0.0028700800612568855
      ],
      "type": "VEC3"
    },
    {
      "bufferView": 2,
      "byteOffset": 28800,
      "componentType": 5126,
      "count": 2400,
      "max": [
        0.9983610510826111,
        0.9994733929634094,
        0.9959307312965393
      ],
      "min": [
        -0.9993805885314941,
        -0.9968835711479187,
        -0.996791422367096
      ],
      "type": "VEC3"
    },
    {
      "bufferView": 1,
      "componentType": 5126,
      "count": 2400,
      "max": [
        0.9901959896087646,
        0.8178960084915161
      ],
      "min": [
        0.00980400014668703,
        0.009804010391235352
      ],
      "type": "VEC2"
    },
    {
      "bufferView": 0,
      "componentType": 5125,
      "count": 7200,
      "type": "SCALAR"
    }
  ],
  "asset": {
    "extras": {
      "author": "Juandaneitor master (https://sketchfab.com/juandavidchibuque)",
      "license": "CC-BY-4.0 (http://creativecommons.org/licenses/by/4.0/)",
      "source": "https://sketchfab.com/3d-models/bush-ball-a674b9d65d3246a88d1f3d0ef7134781",
      "title": "Bush Ball"
    },
    "generator": "Sketchfab-15.33.0",
    "version": "2.0"
  },
  "bufferViews": [
    {
      "buffer": 0,
      "byteLength": 28800,
      "name": "floatBufferViews",
      "target": 34963
    },
    {
      "buffer": 0,
      "byteLength": 19200,
      "byteOffset": 28800,
      "byteStride": 8,
      "name": "floatBufferViews",
      "target": 34962
    },
    {
      "buffer": 0,
      "byteLength": 57600,
      "byteOffset": 48000,
      "byteStride": 12,
      "name": "floatBufferViews",
      "target": 34962
    }
  ],
  "buffers": [
    {
      "byteLength": 105600,
      "uri": "bush.bin"
    }
  ],
  "images": [
    {
      "uri": "textures/Bush1Mtl_baseColor.png"
    }
  ],
  "materials": [
    {
      "doubleSided": true,
      "name": "Bush1Mtl",
      "pbrMetallicRoughness": {
        "baseColorTexture": {
          "index": 0
        },
        "metallicFactor": 0.0,
        "roughnessFactor": 0.6
      }
    }
  ],
  "meshes": [
    {
      "name": "Object_0",
      "primitives": [
        {
          "attributes": {
            "NORMAL": 1,
            "POSITION": 0,
            "TEXCOORD_0": 2
          },
          "indices": 3,
          "material": 0,
          "mode": 4
        }
      ]
    }
  ],
  "nodes": [
    {
      "children": [
        1
      ],
      "matrix": [
        1.0,
        0.0,
        0.0,
        0.0,
        0.0,
        2.220446049250313e-16,
        -1.0,
        0.0,
        0.0,
        1.0,
        2.220446049250313e-16,
        0.0,
        0.0,
        0.0,
        0.0,
        1.0
      ],
      "name": "Sketchfab_model"
    },
    {
      "children": [
        2
      ],
      "name": "caaaab1850074aeb930bbefeddba163e.obj.cleaner.materialmerger.gles"
    },
    {
      "mesh": 0,
      "name": "Object_2"
    }
  ],
  "samplers": [
    {
      "magFilter": 9729,
      "minFilter": 9987,
      "wrapS": 10497,
      "wrapT": 10497
    }
  ],
  "scene": 0,
  "scenes": [
    {
      "name": "Sketchfab_Scene",
      "nodes": [
        0
      ]
    }
  ],
  "textures": [
    {
      "sampler": 0,
      "source": 0
    }
  ]
}
