{
  "accessors": [
    {
      "bufferView": 2,
      "componentType": 5126,
      "count": 44510,
      "max": [
        1.0552070140838623,
        1.0673775672912598,
        1.0808488130569458
      ],
      "min": [
        -1.0550678968429565,
        -1.0839002132415771,
        -1.080784797668457
      ],
      "type": "VEC3"
    },
    {
      "bufferView": 2,
      "byteOffset": 534120,
      "componentType": 5126,
      "count": 44510,
      "max": [
        0.9999812841415405,
        0.9999834299087524,
        0.9998617172241211
      ],
      "min": [
        -0.9999533891677856,
        -0.999987006187439,
        -0.9999961853027344
      ],
      "type": "VEC3"
    },
    {
      "bufferView": 3,
      "componentType": 5126,
      "count": 44510,
      "max": [
        0.9999865889549255,
        0.9669042825698853,
        0.999992847442627,
        1.0
      ],
      "min": [
        -0.9999922513961792,
        -0.9936957359313965,
        -0.9999969005584717,
        -1.0
      ],
      "type": "VEC4"
    },
    {
      "bufferView": 1,
      "componentType": 5126,
      "count": 44510,
      "max": [
        1.4999964237213135,
        0.9374970197677612
      ],
      "min": [
        -0.5000723600387573,
        0.062502920627594
      ],
      "type": "VEC2"
    },
    {
      "bufferView": 0,
      "componentType": 5125,
      "count": 114030,
      "type": "SCALAR"
    }
  ],
  "asset": {
    "extras": {
      "author": "Mykhailo Ohorodnichuk (https://sketchfab.com/GamePiggs)",
      "license": "CC-BY-4.0 (http://creativecommons.org/licenses/by/4.0/)",
      "source": "https://sketchfab.com/3d-models/crystal-04-procedural-material-caaae60f4961491981921dd757fa00db",
      "title": "Crystal 04 Procedural Material 💎"
    },
    "generator": "Sketchfab-16.12.0",
    "version": "2.0"
  },
  "bufferViews": [
    {
      "buffer": 0,
      "byteLength": 456120,
      "name": "floatBufferViews",
      "target": 34963
    },
    {
      "buffer": 0,
      "byteLength": 356080,
      "byteOffset": 456120,
      "byteStride": 8,
      "name": "floatBufferViews",
      "target": 34962
    },
    {
      "buffer": 0,
      "byteLength": 1068240,
      "byteOffset": 812200,
      "byteStride": 12,
      "name": "floatBufferViews",
      "target": 34962
    },
    {
      "buffer": 0,
      "byteLength": 712160,
      "byteOffset": 1880440,
      "byteStride": 16,
      "name": "floatBufferViews",
      "target": 34962
    }
  ],
  "buffers": [
    {
      "byteLength": 2592600,
      "uri": "crystal.bin"
    }
  ],
  "extensionsUsed": [
    "KHR_materials_specular"
  ],
  "images": [
    {
      "uri": "textures/Crystal04_baseColor.png"
    },
    {
      "uri": "textures/Crystal04_metallicRoughness.png"
    },
    {
      "uri": "textures/Crystal04_normal.png"
    }
  ],
  "materials": [
    {
      "doubleSided": true,
      "emissiveFactor": [
        0.1,
        0.1,
        0.1
      ],
      "emissiveTexture": {
        "index": 0
      },
      "extensions": {
        "KHR_materials_specular": {
          "specularColorFactor": [
            1.0,
            1.0,
            1.0
          ],
          "specularFactor": 0.41980121927948316
        }
      },
      "name": "Crystal04",
      "normalTexture": {
        "index": 2
      },
      "occlusionTexture": {
        "index": 1
      },
      "pbrMetallicRoughness": {
        "baseColorTexture": {
          "index": 0
        },
        "metallicRoughnessTexture": {
          "index": 1
        }
      }
    }
  ],
  "meshes": [
    {
      "name": "Object_0",
      "primitives": [
        {
          "attributes": {
            "NORMAL": 1,
            "POSITION": 0,
            "TANGENT": 2,
            "TEXCOORD_0": 3
          },
          "indices": 4,
          "material": 0,
          "mode": 4
        }
      ]
    }
  ],
  "nodes": [
    {
      "children": [
        1
      ],
      "matrix": [
        1.0,
        0.0,
        0.0,
        0.0,
        0.0,
        2.220446049250313e-16,
        -1.0,
        0.0,
        0.0,
        1.0,
        2.220446049250313e-16,
        0.0,
        0.0,
        0.0,
        0.0,
        1.0
      ],
      "name": "Sketchfab_model"
    },
    {
      "children": [
        2
      ],
      "name": "root"
    },
    {
      "children": [
        3
      ],
      "matrix": [
        1.0,
        0.0,
        0.0,
        0.0,
        0.0,
        2.220446049250313e-16,
        1.0,
        0.0,
        0.0,
        -1.0,
        2.220446049250313e-16,
        0.0,
        0.0,
        0.0,
        0.0,
        1.0
      ],
      "name": "GLTF_SceneRootNode"
    },
    {
      "children": [
        4
      ],
      "matrix": [
        -0.27663900208950715,
        0.0,
        -1.0209030820964693,
        0.0,
        0.0,
        1.0577203035354614,
        0.0,
        0.0,
        1.0209030820964693,
        0.0,
        -0.27663900208950715,
        0.0,
        0.0,
        0.0,
        0.0,
        1.0
      ],
      "name": "Sphere_0"
    },
    {
      "mesh": 0,
      "name": "Object_4"
    }
  ],
  "samplers": [
    {
      "magFilter": 9729,
      "minFilter": 9987,
      "wrapS": 10497,
      "wrapT": 10497
    }
  ],
  "scene": 0,
  "scenes": [
    {
      "name": "Sketchfab_Scene",
      "nodes": [
        0
      ]
    }
  ],
  "textures": [
    {
      "sampler": 0,
      "source": 0
    },
    {
      "sampler": 0,
      "source": 1
    },
    {
      "sampler": 0,
      "source": 2
    }
  ]
}
